<svg width="28" height="28" viewBox="0 0 28 28" fill="none" xmlns="http://www.w3.org/2000/svg">
<g opacity="0.8">
<path d="M17.0784 4.06023C17.2884 4.06023 17.4984 4.06023 17.9184 4.06023V7.21023C17.7084 7.21023 17.2884 7.21023 16.8684 7.21023C16.4484 7.21023 16.0284 7.21023 15.8184 7.42023C15.6084 7.63023 15.6084 7.84023 15.6084 8.33023C15.6084 8.75023 15.6084 9.03023 15.6084 9.45023H17.9184V12.1102H15.6084V23.6602H12.0384V12.0402H10.1484V9.38023H12.0384V8.47023C12.0384 6.93023 12.2484 5.81023 12.6684 5.32023C13.2984 4.41023 14.5584 3.99023 16.4484 3.99023C16.6584 4.06023 16.8684 4.06023 17.0784 4.06023Z" fill="#F7F8FA"/>
</g>
</svg>
